<svg display="none" xmlns="http://www.w3.org/2000/svg">
  <symbol id="facebook" viewBox="0 0 50 50">
    <path fill-rule="evenodd" clip-rule="evenodd" d="M25 50C38.8071 50 50 38.8071 50 25C50 11.1929 38.8071 0 25 0C11.1929 0 0 11.1929 0 25C0 38.8071 11.1929 50 25 50Z" />
    <path fill-rule="evenodd" clip-rule="evenodd" d="M29.6234 16.0037L27.2249 16C24.5302 16 22.7888 17.7387 22.7888 20.4298V22.4723H20.3771C20.1688 22.4723 20 22.6367 20 22.8395V25.7988C20 26.0016 20.1689 26.1658 20.3771 26.1658H22.7888V33.633C22.7888 33.8358 22.9575 34 23.1659 34H26.3124C26.5208 34 26.6896 33.8356 26.6896 33.633V26.1658H29.5093C29.7177 26.1658 29.8865 26.0016 29.8865 25.7988L29.8876 22.8395C29.8876 22.7421 29.8478 22.6489 29.7772 22.5799C29.7066 22.511 29.6103 22.4723 29.5103 22.4723H26.6896V20.7409C26.6896 19.9087 26.8933 19.4862 28.0073 19.4862L29.623 19.4857C29.8312 19.4857 30 19.3212 30 19.1186V16.3708C30 16.1683 29.8314 16.0041 29.6234 16.0037Z" fill="white"/>
   </symbol>



  <symbol id="twitter" viewBox="0 0 50 50">
    <path fill-rule="evenodd" clip-rule="evenodd" d="M25 50C38.8071 50 50 38.8071 50 25C50 11.1929 38.8071 0 25 0C11.1929 0 0 11.1929 0 25C0 38.8071 11.1929 50 25 50Z" />
    <path fill-rule="evenodd" clip-rule="evenodd" d="M33.979 19.3628C33.9532 19.3321 33.9106 19.3217 33.8743 19.3385C33.3361 19.5794 32.77 19.7527 32.1869 19.8551C32.8059 19.385 33.2672 18.734 33.5037 17.9876C33.5151 17.9519 33.5033 17.9128 33.4744 17.8895C33.4453 17.8663 33.4049 17.8633 33.373 17.8825C32.6758 18.2999 31.9206 18.5941 31.1276 18.7573C30.4248 18.0211 29.4435 17.6 28.4278 17.6C26.3623 17.6 24.6821 19.296 24.6821 21.3808C24.6821 21.633 24.7063 21.8827 24.7542 22.1252C21.8934 21.9469 19.2184 20.5605 17.3995 18.3086C17.3809 18.2855 17.3527 18.2727 17.3232 18.2757C17.2939 18.2779 17.2677 18.2947 17.2529 18.3202C16.9211 18.8948 16.7458 19.5523 16.7458 20.2211C16.7458 21.3803 17.2675 22.4641 18.1559 23.1792C17.6985 23.1238 17.2518 22.9784 16.849 22.7527C16.8219 22.7373 16.7882 22.7375 16.7611 22.7533C16.734 22.7689 16.7168 22.7979 16.7161 22.8296L16.7157 22.878C16.7157 24.5427 17.8025 26.0045 19.3487 26.4898C18.9415 26.5561 18.5189 26.5516 18.1036 26.4716C18.073 26.4658 18.0409 26.4764 18.0199 26.5003C17.999 26.5241 17.992 26.5574 18.0016 26.5875C18.4653 28.0484 19.7535 29.0728 21.2531 29.2005C20.0022 30.1255 18.5237 30.6129 16.9615 30.6129C16.6737 30.6129 16.3839 30.5956 16.1 30.5619C16.0594 30.5573 16.0192 30.5817 16.0052 30.6209C15.9912 30.6606 16.0061 30.7049 16.0412 30.7274C17.7317 31.8218 19.6864 32.4 21.6943 32.4C28.2619 32.4 32.1865 27.0148 32.1865 21.8087C32.1865 21.6637 32.1837 21.5195 32.178 21.3756C32.8865 20.8525 33.4947 20.2122 33.9851 19.471C34.007 19.4378 34.0046 19.3937 33.979 19.3628Z" fill="white"/>
   </symbol>

  <symbol id="youtube" viewBox="0 0 50 50" >
    <path fill-rule="evenodd" clip-rule="evenodd" d="M25 50C38.8071 50 50 38.8071 50 25C50 11.1929 38.8071 0 25 0C11.1929 0 0 11.1929 0 25C0 38.8071 11.1929 50 25 50Z" />
    <path fill-rule="evenodd" clip-rule="evenodd" d="M25 17.8C22.102 17.8 18.3406 18.5294 18.3406 18.5294L18.3311 18.5403C17.0112 18.7523 16 19.8915 16 21.277V28.7217C16.0027 30.09 16.9937 31.2524 18.3379 31.4653L18.3406 31.4693C18.3406 31.4693 22.102 32.2 25 32.2C27.898 32.2 31.6594 31.4693 31.6594 31.4693C33.0065 31.2555 33.9986 30.0914 34 28.7231V21.277C33.998 19.9096 33.0068 18.7465 31.6621 18.5335C31.6594 18.5294 27.898 17.8 25 17.8ZM23.2 21.85L28.6 25L23.2 28.15V21.85Z" fill="white"/>
   </symbol>
 
  <symbol id="download" viewBox="0 0 17 17" >
    <path fill-rule="evenodd" clip-rule="evenodd" d="M16 12.4262C16 12.1887 16.2626 12 16.5 12C16.7374 12 17 12.1887 17 12.4262V16.56C17 16.7974 16.8051 17 16.5677 17H0.42616C0.188723 17 0 16.7974 0 16.56V12.4262C0 12.1887 0.262562 12 0.5 12C0.737438 12 1 12.1887 1 12.4262V16H16V12.4262ZM9 0V10H12L8.5 14L5 10H8V0H9Z" />
   </symbol>

</svg>


