<svg width="84" height="84" viewBox="0 0 84 84" fill="none" xmlns="http://www.w3.org/2000/svg">
<path d="M81.598 11.4836C80.3623 10.2457 78.3573 10.2436 77.1215 11.4783L39.1422 49.3574L25.4394 34.4748C24.2554 33.1895 22.2535 33.1062 20.9661 34.29C19.6797 35.4741 19.5973 37.477 20.7813 38.7634L36.7161 56.0688C37.2996 56.7031 38.1163 57.0714 38.9775 57.0893C39.0006 57.0903 39.023 57.0903 39.0451 57.0903C39.882 57.0903 40.687 56.7579 41.2801 56.167L81.5917 15.961C82.8306 14.7264 82.8327 12.7214 81.598 11.4836Z" fill="#4592FF"/>
<path d="M80.8341 38.8341C79.0855 38.8341 77.6683 40.2513 77.6683 42C77.6683 61.6683 61.6683 77.6683 42 77.6683C22.3328 77.6683 6.33166 61.6683 6.33166 42C6.33166 22.3328 22.3328 6.33166 42 6.33166C43.7486 6.33166 45.1659 4.91449 45.1659 3.16591C45.1659 1.41717 43.7486 0 42 0C18.8409 0 0 18.8409 0 42C0 65.1581 18.8409 84 42 84C65.1581 84 84 65.1581 84 42C84 40.2514 82.5828 38.8341 80.8341 38.8341Z" fill="#4592FF"/>
</svg>
